<svg xmlns="http://www.w3.org/2000/svg" width="38" height="37" fill="none" xmlns:v="https://vecta.io/nano"><g clip-path="url(#A)"><path d="M18.925-.006A18.23 18.23 0 0 0 .698 18.221a18.23 18.23 0 0 0 18.226 18.226c6.756 0 12.649-3.679 15.797-9.14l-6.417-3.691c-1.87 3.244-5.367 5.433-9.38 5.433A10.83 10.83 0 0 1 8.096 18.221 10.83 10.83 0 0 1 18.925 7.392c2.564 0 4.913.897 6.766 2.387l-4.786 3.404 16.246 5.418V1.623L31.86 5.388C28.558 2.059 23.984-.006 18.925-.006z" fill="#fff"/></g><defs><clipPath id="A"><path fill="#fff" transform="translate(.698 -.006)" d="M0 0h36.453v36.453H0z"/></clipPath></defs></svg>